<?xml version="1.0" encoding="utf-8"?>
<!-- Generator: Adobe Illustrator 16.0.0, SVG Export Plug-In . SVG Version: 6.00 Build 0)  -->
<!DOCTYPE svg PUBLIC "-//W3C//DTD SVG 1.1//EN" "http://www.w3.org/Graphics/SVG/1.1/DTD/svg11.dtd">
<svg version="1.1" id="Layer_1" xmlns="http://www.w3.org/2000/svg" xmlns:xlink="http://www.w3.org/1999/xlink" x="0px" y="0px"
	 width="800px" height="380px" viewBox="0 0 800 380" enable-background="new 0 0 800 380" xml:space="preserve">
<path fill="#A24689" d="M165.07,138.668c10.126,0,19.689,2.016,28.684,6.046c8.991,4.03,16.897,9.458,23.721,16.278
	c6.821,6.822,12.248,14.782,16.279,23.876c4.03,9.102,6.046,18.812,6.046,29.146c0,10.339-1.967,20-5.892,28.993
	c-3.93,8.992-9.254,16.898-15.97,23.721c-6.72,6.82-14.627,12.199-23.721,16.124c-9.1,3.931-18.915,5.893-29.458,5.893
	c-10.339,0-20.053-1.859-29.147-5.581c-9.099-3.722-17.054-8.938-23.876-15.658c-6.82-6.717-12.199-14.623-16.124-23.723
	c-3.929-9.095-5.892-19.018-5.892-29.768c0-10.334,1.909-20,5.736-28.991c3.822-8.992,9.146-16.846,15.97-23.564
	c6.821-6.717,14.83-12.095,24.031-16.124C144.653,141.303,154.527,139.084,165.07,138.668z M164.76,169.365
	c-5.998,0-11.734,1.14-17.209,3.411c-5.479,2.277-10.232,5.427-14.265,9.458c-4.03,4.03-7.237,8.735-9.611,14.108
	c-2.379,5.377-3.566,11.27-3.566,17.674c0,5.997,1.188,11.733,3.566,17.208c2.374,5.479,5.581,10.286,9.611,14.419
	c4.031,4.138,8.784,7.395,14.265,9.768c5.475,2.379,11.211,3.565,17.209,3.565c5.993,0,11.729-1.188,17.21-3.565
	c5.475-2.373,10.231-5.63,14.264-9.768c4.031-4.133,7.233-8.938,9.612-14.419c2.374-5.476,3.564-11.212,3.564-17.208
	c-0.619-12.193-4.961-22.479-13.021-30.854c-8.063-8.372-18.504-12.971-31.318-13.8L164.76,169.365L164.76,169.365z"/>
<path fill="#8F8F8F" d="M380.884,90.917c3.514-0.204,6.821,1.19,9.924,4.186c3.101,2.999,4.649,6.255,4.649,9.768v108.838
	c0,10.129-2.067,19.741-6.201,28.834c-4.139,9.101-9.719,17.055-16.743,23.877c-7.03,6.821-15.039,12.248-24.031,16.278
	s-18.45,6.047-28.372,6.047c-10.131,0-19.743-1.962-28.838-5.893c-9.099-3.925-17.054-9.304-23.876-16.124
	c-6.821-6.82-12.248-14.776-16.279-23.876c-4.03-9.095-6.046-18.81-6.046-29.144c0-11.164,1.808-20.979,5.427-29.458
	c3.613-8.475,9.04-16.435,16.278-23.876v0.311c7.646-7.233,16.071-12.714,25.271-16.435c9.195-3.722,18.652-5.581,28.372-5.581
	c5.784,0,12.659,0.93,20.62,2.791c7.955,1.859,15.862,5.479,23.722,10.853V106.42c0-2.064,0.411-4.031,1.24-5.893
	c0.822-1.859,1.908-3.565,3.256-5.115c1.343-1.552,2.944-2.738,4.807-3.566c1.859-0.823,3.722-1.134,5.582-0.93H380.884z
	 M364.76,213.708c0-5.582-1.191-11.059-3.565-16.437c-2.379-5.373-5.635-10.179-9.769-14.418
	c-4.139-4.235-8.892-7.598-14.265-10.078c-5.378-2.479-11.061-3.721-17.054-3.721c-5.998,0-11.733,1.191-17.21,3.564
	c-5.479,2.38-10.231,5.582-14.264,9.613c-4.03,4.03-7.238,8.788-9.612,14.264c-2.379,5.479-3.564,11.217-3.564,17.21
	c0,6.2,1.187,11.99,3.564,17.363c2.374,5.378,5.582,10.077,9.612,14.107c4.031,4.031,8.784,7.237,14.264,9.611
	c5.477,2.379,11.212,3.565,17.21,3.565c5.993,0,11.676-1.188,17.054-3.565c5.373-2.374,10.127-5.58,14.265-9.611
	c4.134-4.03,7.39-8.729,9.769-14.107C363.567,225.698,364.76,219.908,364.76,213.708z"/>
<path fill="#8F8F8F" d="M479.49,138.668c10.127,0,19.688,2.016,28.684,6.046c8.992,4.03,16.898,9.458,23.722,16.278
	c6.82,6.822,12.248,14.782,16.278,23.876c4.031,9.102,6.046,18.812,6.046,29.146c0,10.339-1.967,20-5.892,28.993
	c-3.93,8.992-9.254,16.898-15.97,23.721c-6.72,6.82-14.627,12.199-23.722,16.124c-9.099,3.931-18.915,5.893-29.458,5.893
	c-10.339,0-20.053-1.859-29.146-5.581c-9.1-3.722-17.055-8.938-23.877-15.658c-6.82-6.717-12.198-14.623-16.124-23.723
	c-3.929-9.095-5.892-19.018-5.892-29.768c0-10.334,1.908-20,5.735-28.991c3.822-8.992,9.146-16.846,15.97-23.564
	c6.821-6.717,14.83-12.095,24.031-16.124C459.074,141.303,468.947,139.084,479.49,138.668z M479.18,169.365
	c-5.997,0-11.732,1.14-17.209,3.411c-5.479,2.277-10.23,5.427-14.264,9.458c-4.031,4.03-7.238,8.735-9.612,14.108
	c-2.379,5.377-3.565,11.27-3.565,17.674c0,5.997,1.188,11.733,3.565,17.208c2.374,5.479,5.581,10.286,9.612,14.419
	c4.03,4.138,8.784,7.395,14.264,9.768c5.477,2.379,11.212,3.565,17.209,3.565c5.993,0,11.729-1.188,17.211-3.565
	c5.475-2.373,10.231-5.63,14.264-9.768c4.031-4.133,7.232-8.938,9.612-14.419c2.374-5.476,3.564-11.212,3.564-17.208
	c-0.62-12.193-4.961-22.479-13.021-30.854c-8.063-8.372-18.505-12.971-31.317-13.8L479.18,169.365L479.18,169.365z"/>
<path fill="#8F8F8F" d="M637.009,138.668c10.126,0,19.689,2.016,28.684,6.046c8.992,4.03,16.897,9.458,23.722,16.278
	c6.82,6.822,12.248,14.782,16.278,23.876c4.031,9.102,6.046,18.812,6.046,29.146c0,10.339-1.967,20-5.891,28.993
	c-3.931,8.992-9.255,16.898-15.971,23.721c-6.72,6.82-14.627,12.199-23.722,16.124c-9.099,3.931-18.914,5.893-29.457,5.893
	c-10.34,0-20.054-1.859-29.147-5.581c-9.099-3.722-17.054-8.938-23.875-15.658c-6.821-6.717-12.199-14.623-16.125-23.723
	c-3.929-9.095-5.892-19.018-5.892-29.768c0-10.334,1.908-20,5.735-28.991c3.822-8.992,9.146-16.846,15.97-23.564
	c6.821-6.717,14.83-12.095,24.031-16.124C616.592,141.303,626.466,139.084,637.009,138.668z M636.699,169.365
	c-5.998,0-11.734,1.14-17.209,3.411c-5.479,2.277-10.232,5.427-14.265,9.458c-4.03,4.03-7.237,8.735-9.612,14.108
	c-2.379,5.377-3.565,11.27-3.565,17.674c0,5.997,1.188,11.733,3.565,17.208c2.375,5.479,5.582,10.286,9.612,14.419
	c4.03,4.138,8.783,7.395,14.265,9.768c5.475,2.379,11.211,3.565,17.209,3.565c5.992,0,11.729-1.188,17.209-3.565
	c5.476-2.373,10.232-5.63,14.265-9.768c4.03-4.133,7.233-8.938,9.612-14.419c2.373-5.476,3.564-11.212,3.564-17.208
	c-0.62-12.193-4.961-22.479-13.023-30.854c-8.062-8.372-18.502-12.971-31.316-13.8L636.699,169.365L636.699,169.365z"/>
</svg>
